<svg width="119" height="20" viewBox="0 0 119 20" fill="none" xmlns="http://www.w3.org/2000/svg"><path d="M35.6658 2.97226c.0274.02777.0274.02777.0547.02777-.0273 0-.0273-.02777-.0547-.02777Zm1.4503 10.25004c-1.0398 1.9444-2.5175 3.4166-4.1867 4.1111-.7388.3611-1.505.5277-2.2438.5277-.6294 0-1.2588-.1388-1.8334-.3888-.1642-.0834-.3557-.1945-.5747-.3056l-.1094-.1111c-2.6543-1.8056-3.2016-6.4167-1.1767-10.22223 1.0125-1.94445 2.4902-3.41667 4.1867-4.13889.7662-.36111 1.505-.52778 2.2439-.52778.6567 0 1.2861.13889 1.8333.38889l.4379.25c.0273 0 .0547.02778.0547.02778l.0821.02778.1094.11111c1.5598 1.05555 2.4354 3.11111 2.4081 5.52777l1.6144.02778c-.3831-2.55555-1.7786-4.77778-3.8035-6.11111l-.0274-.02778c-.0274 0-.0274-.02777-.0547-.02777l-.0548-.02778c-1.204-.77778-2.5722-1.16667-3.9677-1.16667-4.433 0-8.0177 3.97222-8.0177 8.8611 0 2.8611 1.2314 5.5278 3.3384 7.1667.1916.1666.301.25.4379.3333.1368.1111.2462.1667.3557.25.1642.0833.3284.1945.4925.25 1.0672.5556 2.2165.8333 3.3932.8333 3.7762 0 7.0599-2.9166 7.8534-6.9722l-2.2438.0556c-.1642.4444-.3558.8889-.5473 1.2778ZM43.1979 18.8889V1.13892h-1.6965V18.8889h1.6965ZM52.352 9.94448c3.0921-.19445 5.3907-2.27778 5.3907-4.55556 0-3-3.4752-4.25-6.7315-4.25h-5.5549V18.8334h1.806v-8.8056c3.9952 0 8.4829.1111 8.4829 8.7222v.0834h1.9975v-.0278c0-4.6111-1.6418-7.6945-5.3907-8.86112Zm-5.0897-.5V1.75003h4.734c1.505.05556 2.9006.75 3.4478 2.08334.821 1.94444-.301 4.25-2.4901 5.22222-.5746.25-1.204.36111-1.7786.38889h-3.9131ZM70.4586 2.97226c.0274.02777.0274.02777.0547.02777-.0273 0-.0273-.02777-.0547-.02777Zm1.4503 10.25004c-1.0398 1.9444-2.5175 3.4166-4.1867 4.1111-.7388.3611-1.505.5277-2.2438.5277-.6294 0-1.2588-.1388-1.8334-.3888-.1642-.0834-.3557-.1945-.5747-.3056l-.1094-.1111c-2.6543-1.8056-3.2016-6.4167-1.1767-10.22223 1.0125-1.94445 2.4902-3.41667 4.1867-4.13889.7662-.36111 1.505-.52778 2.2439-.52778.6567 0 1.2861.13889 1.8333.38889l.4379.25c.0273 0 .0547.02778.0547.02778l.0821.02778.1094.11111c1.5598 1.05555 2.4354 3.11111 2.4081 5.52777l1.6144.02778c-.3831-2.55555-1.7786-4.77778-3.8035-6.11111l-.0274-.02778c-.0274 0-.0274-.02777-.0547-.02777l-.0548-.02778c-1.204-.77778-2.5722-1.16667-3.9677-1.16667-4.433 0-8.0177 3.97222-8.0177 8.8611 0 2.8611 1.2314 5.5278 3.3384 7.1667.1916.1666.301.25.4379.3333.1368.1111.2462.1667.3557.25.1642.0833.3284.1945.4925.25 1.0672.5556 2.2165.8333 3.3932.8333 3.7762 0 7.0599-2.9166 7.8534-6.9722l-2.2438.0556c-.1642.4444-.3558.8889-.5473 1.2778ZM88.7995 1.80559V1.1667H76.2942v17.6944h12.5053v-.6666H77.9634v-7.8056h9.7963v-.7222h-9.7963V1.80559h10.8361Z" fill="#fff"/><path d="m102.779 1.11115-5.9104 9.72225v.0277l-.0273-.0277-5.8833-9.72225h-2.1891l6.841 10.33335v7.4166h1.6966v-7.4166l6.8405-10.33335h-1.368ZM111.257 1.13892h-2.381l-7.197 17.72218h1.505l2.381-6.4166h8.127l2.381 6.4166h2.408l-7.224-17.72218Zm-5.419 10.58338 3.804-10.19449 3.776 10.19449h-7.58Z" fill="#fff"/><path d="M12.5754 13.2825c1.4223 1.4223 1.4223 3.7284 0 5.1507-1.4224 1.4224-3.72844 1.4224-5.15078 0-1.42234-1.4223-1.42234-3.7284 0-5.1507 1.42234-1.4224 3.72838-1.4224 5.15078 0Zm0-6.56498c-1.4224 1.42234-3.72843 1.42233-5.15078-.00001-1.42234-1.42234-1.42234-3.72841 0-5.15075 1.42234-1.422345 3.72838-1.422345 5.15078 0 1.4223 1.42234 1.4223 3.72841 0 5.15076Zm5.8578 5.85788c-1.4223 1.4223-3.7284 1.4223-5.1507 0-1.4224-1.4224-1.4224-3.72844 0-5.15078 1.4223-1.42234 3.7284-1.42234 5.1507 0 1.4224 1.42234 1.4224 3.72838 0 5.15078ZM6.71752 7.42462c1.42234 1.42234 1.42234 3.72838 0 5.15078-1.42234 1.4223-3.72842 1.4223-5.15076 0-1.422345-1.4224-1.422345-3.72844 0-5.15078 1.42234-1.42234 3.72842-1.42234 5.15076 0Z" stroke="#fff"/></svg>