<svg width="16" height="20" viewBox="0 0 16 20" fill="none" xmlns="http://www.w3.org/2000/svg"><path d="m4.86448.479261-.8592.2592c-.76633.230841-1.45075.675829-1.97267 1.282579-.52193.60675-.85962 1.35-.97333 2.14222-.356401 2.4816.4404 5.3832 2.3616 8.71084 1.9164 3.3192 4.026 5.4576 6.348 6.3936.74612.3006 1.56282.3808 2.35312.2308.7902-.15 1.5208-.5237 2.1049-1.0768l.6516-.6168c.4221-.3999.6848-.9394.7391-1.5184.0543-.5789-.1035-1.1579-.4439-1.6292l-1.6272-2.256c-.22-.3046-.5298-.5327-.8859-.6524-.3562-.1196-.7409-.1248-1.1001-.0148l-2.46122.7524-.0636.012c-.2712.0396-.8964-.5472-1.6764-1.8984-.816-1.41364-.9864-2.24044-.7608-2.45404l1.2528-1.1676c.45749-.42679.76992-.98608.89344-1.59942.12353-.61334.05197-1.24997-.20464-1.82058l-.792-1.7652C7.50915 1.26155 7.08487.834966 6.55446.593166c-.53041-.2418-1.1307-.282288-1.68878-.113905h-.0012Zm1.788 1.805999.7932 1.7652c.15424.34228.19737.72428.12333 1.09233-.07404.36806-.26153.70366-.53613.95967l-1.2552 1.1688c-.804.7596-.5376 2.0592.5412 3.92884 1.0164 1.7592 1.9428 2.628 2.9376 2.4768l.1488-.0312 2.50562-.7644c.1197-.0368.248-.0352.3668.0046.1188.0398.2222.1158.2956.2174l1.6272 2.256c.1704.2357.2493.5253.2222.8149-.0272.2896-.1586.5595-.3698.7595l-.6516.6168c-.4172.3948-.939.6616-1.5033.7685-.5644.107-1.1476.0498-1.6803-.1649-2.03762-.8208-3.96362-2.7732-5.75762-5.88-1.7976-3.11404-2.5248-5.76244-2.2128-7.94044.08117-.56603.32241-1.09707.69532-1.53057.3729-.4335.86193-.75139 1.40948-.91623l.8604-.2592c.27895-.08382.57886-.06332.84381.05767.26496.121.47686.33423.59619.59993Z" fill="#fff"/></svg>